<?xml version="1.0" encoding="utf-8"?>
<!-- Generator: Adobe Illustrator 23.1.0, SVG Export Plug-In . SVG Version: 6.00 Build 0)  -->
<svg version="1.1" id="Layer_1" xmlns="http://www.w3.org/2000/svg" xmlns:xlink="http://www.w3.org/1999/xlink" x="0px" y="0px"
	 viewBox="0 0 1920 1080" style="enable-background:new 0 0 1920 1080;" xml:space="preserve">
<style type="text/css">
	.st0{fill:#FFFFFF;}
</style>
<path class="st0" d="M1306.72,232.76v220.31c0,8.33,0,20.67,0,37.02c0,16.36,0.29,32.86,0.89,49.5l-4.46,1.78
	c-4.77-7.14-11.75-16.5-20.96-28.1c-9.23-11.6-18.28-23.04-27.2-34.34c-8.92-11.29-16.06-19.92-21.41-25.87L1042.7,232.76h-0.21
	H875.02H658.06c-45.78,0-83.98,9.23-114.62,27.65c-30.62,18.44-53.66,42.52-69.13,72.25c-15.46,29.74-23.19,61.85-23.19,96.33
	c0,39.25,9.23,74.18,27.65,104.8c18.44,30.63,43.41,55.16,74.92,73.59L433.29,846.42h221.2l93.65-206.04h97.22v206.04h29.65h167.47
	h11.81V601.13c0-5.35,0-13.67,0-24.97c0-11.29-0.31-22.59-0.89-33.89l4.46-1.78c6.54,8.92,13.38,18.28,20.51,28.1
	c7.14,9.81,15.75,20.67,25.87,32.56l214.96,245.29H1486V232.76H1306.72z M845.37,503.91H707.12c-15.46,0-28.54-6.09-39.24-18.28
	c-10.7-12.18-16.06-28.39-16.06-48.61c0-12.49,2.38-23.48,7.14-33c4.77-9.5,11.3-17.09,19.62-22.75c8.33-5.64,17.84-8.47,28.54-8.47
	h138.25V503.91z"/>
</svg>
